<svg width="426" height="163" viewBox="0 0 426 163" fill="none" xmlns="http://www.w3.org/2000/svg">
<path d="M345.704 104.856C344.424 106.008 342.472 107.128 339.848 108.216C337.288 109.24 334.472 110.104 331.4 110.808C328.392 111.448 325.576 111.768 322.952 111.768C315.528 111.768 309.096 110.296 303.656 107.352C298.216 104.344 293.992 100.28 290.984 95.16C288.04 90.04 286.568 84.216 286.568 77.688C286.568 71.736 287.496 66.456 289.352 61.848C291.272 57.24 293.896 53.368 297.224 50.232C300.552 47.096 304.328 44.728 308.552 43.128C312.84 41.464 317.384 40.632 322.184 40.632C326.344 40.632 330.184 41.112 333.704 42.072C337.224 43.032 340.296 44.248 342.92 45.72L339.56 55.032C338.28 54.328 336.68 53.656 334.76 53.016C332.904 52.312 330.952 51.768 328.904 51.384C326.92 50.936 325.096 50.712 323.432 50.712C318.056 50.712 313.384 51.768 309.416 53.88C305.448 55.992 302.376 59 300.2 62.904C298.024 66.808 296.936 71.448 296.936 76.824C296.936 81.752 298.024 86.104 300.2 89.88C302.44 93.592 305.512 96.504 309.416 98.616C313.384 100.728 317.96 101.784 323.144 101.784C325.448 101.784 327.688 101.56 329.864 101.112C332.104 100.664 333.992 99.992 335.528 99.096V86.232H321.992V76.536H345.704V104.856ZM357.409 90.552C357.409 86.52 358.369 82.904 360.289 79.704C362.209 76.504 364.833 73.976 368.161 72.12C371.553 70.2 375.457 69.24 379.873 69.24C384.289 69.24 388.129 70.2 391.393 72.12C394.721 73.976 397.281 76.504 399.073 79.704C400.929 82.904 401.857 86.52 401.857 90.552C401.857 94.584 400.929 98.232 399.073 101.496C397.217 104.696 394.625 107.256 391.297 109.176C387.969 111.032 384.097 111.96 379.681 111.96C375.393 111.96 371.585 111.096 368.257 109.368C364.929 107.64 362.273 105.176 360.289 101.976C358.369 98.776 357.409 94.968 357.409 90.552ZM367.201 90.648C367.201 93.208 367.745 95.48 368.833 97.464C369.921 99.448 371.393 101.048 373.249 102.264C375.169 103.416 377.281 103.992 379.585 103.992C383.233 103.992 386.209 102.712 388.513 100.152C390.881 97.592 392.065 94.424 392.065 90.648C392.065 86.872 390.881 83.704 388.513 81.144C386.209 78.52 383.233 77.208 379.585 77.208C377.217 77.208 375.105 77.816 373.249 79.032C371.393 80.248 369.921 81.88 368.833 83.928C367.745 85.976 367.201 88.216 367.201 90.648Z" fill="#47C029" fill-opacity="0.76"/>
<path d="M222.238 62.016L276.598 84.984V85.416L222.238 108.384V99.672L235.342 94.488V74.904L222.238 69.504V62.016ZM241.822 77.496V91.968L259.822 84.912L241.822 77.496Z" fill="#FFD31D"/>
<path d="M64.704 99.856C63.424 101.008 61.472 102.128 58.848 103.216C56.288 104.24 53.472 105.104 50.4 105.808C47.392 106.448 44.576 106.768 41.952 106.768C34.528 106.768 28.096 105.296 22.656 102.352C17.216 99.344 12.992 95.28 9.984 90.16C7.04 85.04 5.568 79.216 5.568 72.688C5.568 66.736 6.496 61.456 8.352 56.848C10.272 52.24 12.896 48.368 16.224 45.232C19.552 42.096 23.328 39.728 27.552 38.128C31.84 36.464 36.384 35.632 41.184 35.632C45.344 35.632 49.184 36.112 52.704 37.072C56.224 38.032 59.296 39.248 61.92 40.72L58.56 50.032C57.28 49.328 55.68 48.656 53.76 48.016C51.904 47.312 49.952 46.768 47.904 46.384C45.92 45.936 44.096 45.712 42.432 45.712C37.056 45.712 32.384 46.768 28.416 48.88C24.448 50.992 21.376 54 19.2 57.904C17.024 61.808 15.936 66.448 15.936 71.824C15.936 76.752 17.024 81.104 19.2 84.88C21.44 88.592 24.512 91.504 28.416 93.616C32.384 95.728 36.96 96.784 42.144 96.784C44.448 96.784 46.688 96.56 48.864 96.112C51.104 95.664 52.992 94.992 54.528 94.096V81.232H40.992V71.536H64.704V99.856ZM98.6813 106.96C94.0733 106.96 90.1053 106.064 86.7773 104.272C83.4493 102.416 80.8893 99.888 79.0973 96.688C77.3053 93.424 76.4093 89.744 76.4093 85.648C76.4093 81.68 77.4013 78.096 79.3853 74.896C81.4333 71.632 84.1533 69.04 87.5453 67.12C90.9373 65.2 94.7133 64.24 98.8733 64.24C104.249 64.24 108.697 65.808 112.217 68.944C115.801 72.016 118.201 76.368 119.417 82L88.0253 92.848C89.1773 94.704 90.6813 96.144 92.5373 97.168C94.4573 98.192 96.5693 98.704 98.8733 98.704C100.601 98.704 102.265 98.416 103.865 97.84C105.465 97.264 106.969 96.432 108.377 95.344L112.793 102.544C110.745 103.888 108.473 104.976 105.977 105.808C103.481 106.576 101.049 106.96 98.6813 106.96ZM86.0093 85.072C86.0093 85.776 86.0413 86.448 86.1053 87.088L108.473 78.928C107.641 77.072 106.393 75.44 104.729 74.032C103.129 72.624 100.953 71.92 98.2013 71.92C94.6173 71.92 91.6733 73.168 89.3693 75.664C87.1293 78.096 86.0093 81.232 86.0093 85.072ZM134.143 48.304H143.935V65.968H154.687V73.552H143.935V106H134.143V73.552H127.039V65.968H134.143V48.304Z" fill="#BD0E0E"/>
<path d="M210.048 84.12L207.168 84.372C208.224 84.852 209.064 85.62 209.688 86.676C210.312 87.732 210.624 88.968 210.624 90.384C210.624 91.776 210.204 92.928 209.364 93.84C208.524 94.752 207.444 95.232 206.124 95.28H195V91.644H204.864C205.632 91.62 206.256 91.392 206.736 90.96C207.24 90.528 207.504 89.856 207.528 88.944C207.528 87.672 207 86.604 205.944 85.74C204.888 84.9 203.532 84.48 201.876 84.48H195V80.844H210.048V84.12Z" fill="#FFD31D"/>
<path d="M163.64 87C163.64 85.584 163.964 84.312 164.612 83.184C165.284 82.056 166.22 81.168 167.42 80.52C168.644 79.872 170.084 79.548 171.74 79.548C173.396 79.548 174.812 79.896 175.988 80.592C177.188 81.288 178.1 82.224 178.724 83.4C179.348 84.6 179.66 85.944 179.66 87.432C179.66 88.536 179.444 89.592 179.012 90.6C178.58 91.608 177.968 92.424 177.176 93.048H191.972V96.684H164V93.012H166.196C165.452 92.292 164.84 91.416 164.36 90.384C163.88 89.376 163.64 88.248 163.64 87ZM166.7 88.116C166.7 89.388 167.024 90.444 167.672 91.284C168.344 92.148 169.232 92.724 170.336 93.012H173.324C174.332 92.748 175.16 92.16 175.808 91.248C176.456 90.36 176.78 89.316 176.78 88.116C176.78 87.252 176.564 86.448 176.132 85.704C175.724 84.96 175.136 84.36 174.368 83.904C173.624 83.472 172.76 83.256 171.776 83.256C170.816 83.256 169.952 83.472 169.184 83.904C168.44 84.36 167.84 84.96 167.384 85.704C166.928 86.448 166.7 87.252 166.7 88.116Z" fill="#FFD31D"/>
</svg>
